<?xml version="1.0" encoding="utf-8"?>
<!-- Generator: Adobe Illustrator 26.5.0, SVG Export Plug-In . SVG Version: 6.00 Build 0)  -->
<svg version="1.1" id="Layer_2_00000167362761674546760470000006424184506654867864_"
	 xmlns="http://www.w3.org/2000/svg" xmlns:xlink="http://www.w3.org/1999/xlink" x="0px" y="0px" viewBox="0 0 64 64"
	 style="enable-background:new 0 0 64 64;" xml:space="preserve">
<style type="text/css">
	.st0{fill:url(#SVGID_1_);}
	.st1{fill:none;stroke:#FFFFFF;stroke-width:3;}
</style>
<g>
	<linearGradient id="SVGID_1_" gradientUnits="userSpaceOnUse" x1="32" y1="4.310095e-09" x2="32" y2="64">
		<stop  offset="0" style="stop-color:#68B3B3;stop-opacity:0.6"/>
		<stop  offset="1" style="stop-color:#247C77"/>
	</linearGradient>
	<path class="st0" d="M0,50V14C0,6.3,6.3,0,14,0h36c7.7,0,14,6.3,14,14v36c0,7.7-6.3,14-14,14H14C6.3,64,0,57.7,0,50z"/>
	<g id="Layer_2-2">
		<g id="Layer_1-2">
			<g>
				<path class="st1" d="M14.5,31.1v2.6c0,1.4,0,2.1,0.5,2.5s1.2,0.4,2.6,0.4h5.5c0.5,0,0.8,0,1,0.1s0.3,0.4,0.5,0.9l1.2,3.5
					c0.2,0.5,0.3,0.7,0.5,0.9c0.2,0.1,0.5,0.1,1,0.1h9.4c0.5,0,0.8,0,1-0.1s0.3-0.4,0.5-0.9l1.2-3.5c0.2-0.5,0.3-0.7,0.5-0.9
					c0.2-0.1,0.5-0.1,1-0.1h5.5c1.5,0,2.2,0,2.6-0.4c0.4-0.4,0.5-1.1,0.5-2.5v-2.6"/>
				<path class="st1" d="M39.8,27.4L32,32.9l-7.8-5.5 M32,32.9V14.5"/>
				<path class="st1" d="M39.8,20h6.6c1.5,0,2.2,0,2.6,0.4c0.4,0.4,0.5,1.1,0.5,2.5v23.6c0,1.4,0,2.1-0.5,2.5s-1.2,0.4-2.6,0.4H17.6
					c-1.5,0-2.2,0-2.6-0.4c-0.5-0.4-0.5-1.1-0.5-2.5V23c0-1.4,0-2.1,0.5-2.5s1.2-0.4,2.6-0.4h6.6"/>
			</g>
		</g>
	</g>
</g>
</svg>
