<?xml version="1.0" encoding="UTF-8"?>
<svg id="Layer_2" data-name="Layer 2" xmlns="http://www.w3.org/2000/svg" viewBox="0 0 38 48">
  <defs>
    <style>
      .cls-1, .cls-2, .cls-3 {
        fill: none;
        stroke: #353535;
        stroke-width: 3px;
      }

      .cls-1, .cls-3 {
        stroke-miterlimit: 10;
      }

      .cls-3 {
        stroke-linecap: round;
      }
    </style>
  </defs>
  <g id="Layer_2-2" data-name="Layer 2">
    <g id="Layer_2-2" data-name="Layer 2-2">
      <g id="Layer_2-2-2" data-name="Layer 2-2">
        <g id="Layer_1-2" data-name="Layer 1-2">
          <g>
            <g>
              <path class="cls-2" d="M21.93,1.5H11.5c-4.71,0-7.07,0-8.54,1.46-1.46,1.46-1.46,3.82-1.46,8.54v25c0,4.71,0,7.07,1.46,8.54,1.46,1.46,3.82,1.46,8.54,1.46h15c4.71,0,7.07,0,8.54-1.46,1.46-1.46,1.46-3.82,1.46-8.54V16.07c0-1.02,0-1.53-.19-1.99s-.55-.82-1.27-1.54L25.46,2.96c-.72-.72-1.08-1.08-1.54-1.27-.46-.19-.97-.19-1.99-.19Z"/>
              <path class="cls-2" d="M21.5,1.5V11.5c0,2.36,0,3.54,.73,4.27,.73,.73,1.91,.73,4.27,.73h10"/>
            </g>
            <g>
              <g>
                <polyline class="cls-1" points="22.21 30.3 25.87 26.64 22.21 22.97"/>
                <line class="cls-3" x1="12.13" y1="28.1" x2="12.13" y2="31.22"/>
                <path class="cls-1" d="M25.87,26.64H13.59c-.8,0-1.46,.66-1.46,1.46"/>
              </g>
              <g>
                <polyline class="cls-1" points="15.79 34.8 12.13 38.46 15.79 42.13"/>
                <line class="cls-3" x1="25.87" y1="37" x2="25.87" y2="33.88"/>
                <path class="cls-1" d="M12.13,38.46h12.28c.8,0,1.46-.66,1.46-1.46"/>
              </g>
            </g>
          </g>
        </g>
      </g>
    </g>
  </g>
</svg>