<?xml version="1.0" encoding="UTF-8"?>
<svg id="Layer_2" data-name="Layer 2" xmlns="http://www.w3.org/2000/svg" viewBox="0 0 38 38.43">
  <defs>
    <style>
      .cls-1 {
        fill: none;
        stroke: #353535;
        stroke-width: 3px;
      }
    </style>
  </defs>
  <g id="Layer_2-2" data-name="Layer 2">
    <g id="Layer_1-2" data-name="Layer 1-2">
      <g>
        <path class="cls-1" d="M1.5,17.49v2.72c0,1.47,0,2.2,.46,2.65,.46,.46,1.19,.46,2.65,.46h5.49c.54,0,.81,0,1.02,.15,.2,.15,.29,.4,.46,.92l1.24,3.7c.17,.51,.26,.77,.46,.92s.47,.15,1.02,.15h9.42c.54,0,.81,0,1.02-.15,.2-.15,.29-.4,.46-.92l1.24-3.7c.17-.51,.26-.77,.46-.92s.47-.15,1.02-.15h5.49c1.47,0,2.2,0,2.65-.46s.46-1.19,.46-2.65v-2.72"/>
        <path class="cls-1" d="M26.77,13.61l-7.77,5.83-7.77-5.83m7.77,5.83V0"/>
        <path class="cls-1" d="M26.77,5.83h6.61c1.47,0,2.2,0,2.65,.46s.46,1.19,.46,2.65v24.88c0,1.47,0,2.2-.46,2.65s-1.19,.46-2.65,.46H4.61c-1.47,0-2.2,0-2.65-.46-.46-.46-.46-1.19-.46-2.65V8.94c0-1.47,0-2.2,.46-2.65,.46-.46,1.19-.46,2.65-.46h6.61"/>
      </g>
    </g>
  </g>
</svg>